<?xml version="1.0" encoding="UTF-8" standalone="no"?>
<!-- Created with Inkscape (http://www.inkscape.org/) -->

<svg
   xmlns:dc="http://purl.org/dc/elements/1.1/"
   xmlns:cc="http://creativecommons.org/ns#"
   xmlns:rdf="http://www.w3.org/1999/02/22-rdf-syntax-ns#"
   xmlns:svg="http://www.w3.org/2000/svg"
   xmlns="http://www.w3.org/2000/svg"
   xmlns:sodipodi="http://sodipodi.sourceforge.net/DTD/sodipodi-0.dtd"
   xmlns:inkscape="http://www.inkscape.org/namespaces/inkscape"
   width="512"
   height="512"
   id="svg2"
   version="1.1"
   inkscape:version="0.48.4 r9939"
   sodipodi:docname="fire.svg">
  <defs
     id="defs4" />
  <sodipodi:namedview
     id="base"
     pagecolor="#ffffff"
     bordercolor="#666666"
     borderopacity="1.0"
     inkscape:pageopacity="0.0"
     inkscape:pageshadow="2"
     inkscape:zoom="0.98994949"
     inkscape:cx="586.62678"
     inkscape:cy="236.93957"
     inkscape:document-units="px"
     inkscape:current-layer="layer1"
     showgrid="false"
     inkscape:window-width="1366"
     inkscape:window-height="706"
     inkscape:window-x="-8"
     inkscape:window-y="-8"
     inkscape:window-maximized="1"
     showguides="true"
     inkscape:guide-bbox="true" />
  <metadata
     id="metadata7">
    <rdf:RDF>
      <cc:Work
         rdf:about="">
        <dc:format>image/svg+xml</dc:format>
        <dc:type
           rdf:resource="http://purl.org/dc/dcmitype/StillImage" />
        <dc:title />
      </cc:Work>
    </rdf:RDF>
  </metadata>
  <g
     inkscape:label="Layer 1"
     inkscape:groupmode="layer"
     id="layer1"
     transform="translate(0,-540.36218)">
    <path
       style="fill:#ff0000"
       d="m 159.0292,1049.9516 c -48.58623,-28.7734 -81.664875,-59.49277 -96.668455,-89.77391 -13.10803,-26.45542 -16.60452,-52.7339 -11.36733,-85.43331 3.47666,-21.7072 9.58118,-39.54416 27.3018,-79.77379 17.52081,-39.77604 23.725085,-57.85149 26.667305,-77.69218 0.61446,-4.14354 1.25004,-7.66657 1.41241,-7.82893 0.16236,-0.16236 3.06359,5.50065 6.44717,12.58449 9.72388,20.35787 14.0599,35.3416 16.42813,56.76979 0.58019,5.2497 1.19299,9.68299 1.36176,9.85177 0.56148,0.56148 12.59409,-15.52202 20.68017,-27.64236 39.81488,-59.67901 62.94045,-129.67021 67.43999,-204.11207 l 0.68528,-11.3374 2.63585,1.55955 c 1.44971,0.85776 8.17,5.50502 14.93397,10.32725 31.98919,22.80601 61.33718,51.19347 81.97863,79.29554 23.8358,32.45098 39.47975,69.23199 42.30423,99.46286 0.3261,3.49029 0.94534,6.5638 1.37609,6.83002 1.14854,0.70984 6.44203,-13.78496 8.88532,-24.33005 4.28281,-18.48441 4.58335,-40.45634 0.75241,-55.00959 -0.80417,-3.05497 -1.23321,-5.78238 -0.95343,-6.06092 0.94869,-0.94448 25.1174,24.68128 34.77287,36.86921 52.5215,66.297 76.52224,136.36801 67.46956,196.97974 -8.06329,53.98725 -41.65259,102.43797 -98.87616,142.62339 -12.67025,8.8977 -30.30375,19.8436 -30.94095,19.2064 -0.21997,-0.2199 0.79141,-3.0835 2.24751,-6.3635 18.09787,-40.7674 22.48676,-91.60767 12.02566,-139.30385 -9.80412,-44.70083 -30.17966,-83.52531 -60.56298,-115.39947 -8.82158,-9.25444 -23.88185,-22.44265 -29.4747,-25.81085 -0.83945,-0.50555 -1.00461,2.76053 -0.6196,12.25318 1.44994,35.74976 -8.6654,87.80703 -23.48763,120.87592 -3.3711,7.52105 -12.6442,23.21459 -16.1159,27.27412 l -2.59164,3.03046 0.76644,-9.09137 c 0.42155,-5.00026 0.73337,-17.95547 0.69296,-28.78935 -0.0771,-20.65569 -1.45393,-31.65936 -5.67402,-45.34602 -2.0427,-6.62493 -6.69187,-16.79863 -7.36703,-16.12119 -0.1935,0.19413 -1.3328,4.19625 -2.53179,8.89357 -5.71102,22.37429 -16.83367,46.69417 -32.8588,71.84639 -16.9039,26.53149 -22.92009,40.10288 -26.25492,59.22625 -4.12924,23.67885 0.57747,50.59061 14.31733,81.86271 0.87253,1.9859 -0.71989,1.4573 -7.23751,-2.4025 l 0,0 z"
       id="path2997"
       inkscape:connector-curvature="0" />
    <path
       style="fill:none;stroke:none;stroke-width:1px;stroke-linecap:butt;stroke-linejoin:miter;stroke-opacity:1"
       d="M 165.66502,510.98985 347.49248,512"
       id="path2999"
       inkscape:connector-curvature="0"
       transform="translate(0,540.36218)" />
    <path
       style="fill:#ff6600"
       d="m 233.64392,505.47664 c -63.46821,-0.24973 -67.85154,-0.37975 -68.35875,-2.02754 -0.29807,-0.96838 -1.96072,-5.39724 -3.69477,-9.84192 -6.32245,-16.20555 -9.20658,-29.87803 -9.80196,-46.46701 -0.46228,-12.88034 -0.22844,-16.66692 1.55953,-25.25382 3.69302,-17.73605 7.69645,-26.44277 26.64606,-57.95022 15.96602,-26.54662 23.59095,-43.07783 30.22715,-65.53385 1.84595,-6.24643 3.63215,-11.36033 3.96935,-11.36422 0.88294,-0.0102 6.63885,15.56159 8.45264,22.86737 2.91495,11.74116 3.79705,26.23658 3.1108,51.11923 -0.36392,13.19512 -0.44032,23.99113 -0.16978,23.99113 1.10123,0 11.86974,-17.33008 16.63368,-26.76905 15.01998,-29.75971 25.36743,-78.43552 25.39264,-119.45054 0.006,-9.02823 0.3953,-16.41497 0.8661,-16.41497 1.36502,0 15.99939,12.79332 25.98398,22.71511 28.23165,28.0541 50.31776,67.38686 60.65569,108.02067 5.08463,19.98546 6.59115,31.31748 7.17441,53.96627 0.90074,34.97661 -2.56301,56.39204 -14.19619,87.77135 l -4.20738,11.34898 -21.2132,-0.23007 c -11.66726,-0.12654 -51.73076,-0.35015 -89.03,-0.4969 z"
       id="path3001"
       inkscape:connector-curvature="0"
       transform="translate(0,540.36218)" />
  </g>
</svg>
